<?xml version="1.0" encoding="UTF-8" standalone="no"?>
<!-- Created with Inkscape (http://www.inkscape.org/) -->

<svg
   width="210mm"
   height="297mm"
   viewBox="0 0 210 297"
   version="1.1"
   id="svg1"
   xml:space="preserve"
   inkscape:version="1.4.2 (ebf0e940, 2025-05-08)"
   sodipodi:docname="logo_black.svg"
   xmlns:inkscape="http://www.inkscape.org/namespaces/inkscape"
   xmlns:sodipodi="http://sodipodi.sourceforge.net/DTD/sodipodi-0.dtd"
   xmlns="http://www.w3.org/2000/svg"
   xmlns:svg="http://www.w3.org/2000/svg"><sodipodi:namedview
     id="namedview1"
     pagecolor="#ffffff"
     bordercolor="#000000"
     borderopacity="0.25"
     inkscape:showpageshadow="2"
     inkscape:pageopacity="0.0"
     inkscape:pagecheckerboard="0"
     inkscape:deskcolor="#d1d1d1"
     inkscape:document-units="mm"
     inkscape:zoom="0.26556861"
     inkscape:cx="412.32283"
     inkscape:cy="707.91499"
     inkscape:window-width="1352"
     inkscape:window-height="791"
     inkscape:window-x="-14"
     inkscape:window-y="78"
     inkscape:window-maximized="0"
     inkscape:current-layer="layer1" /><defs
     id="defs1" /><g
     inkscape:label="Layer 1"
     inkscape:groupmode="layer"
     id="layer1"><path
       style="fill:#000000"
       d="m 98.278737,210.50633 c -1.178898,-0.19344 -3.021363,-0.61837 -4.094368,-0.94429 -1.073005,-0.32591 -2.53939,-0.89077 -3.258634,-1.25524 -0.719244,-0.36447 -1.944956,-1.26534 -2.723805,-2.00195 -0.778848,-0.7366 -1.658994,-1.73231 -1.95588,-2.21268 -0.296885,-0.48037 -0.655939,-1.26457 -0.797899,-1.74268 -0.141959,-0.47811 -0.318997,-5.30647 -0.393417,-10.7297 l -0.13531,-9.86042 1.768861,1.08266 c 0.972874,0.59547 2.972714,1.48104 4.44409,1.96795 1.471376,0.48691 3.865854,1.09542 5.321062,1.35225 1.946989,0.34363 4.043523,0.46605 7.937503,0.46349 4.29556,-0.003 5.93913,-0.11618 8.73125,-0.60223 1.89177,-0.32931 4.53903,-0.95009 5.8828,-1.3795 1.48476,-0.47446 3.12412,-1.23734 4.17891,-1.94465 l 1.73568,-1.1639 -0.0779,10.10467 -0.0779,10.10468 -0.71643,1.45521 c -0.39403,0.80036 -1.287,2.03756 -1.98437,2.74933 -0.81378,0.83058 -2.03895,1.66644 -3.42043,2.33354 -1.43673,0.69378 -3.19636,1.25755 -5.29167,1.6954 -2.48128,0.5185 -4.16502,0.67944 -8.03397,0.76788 -3.32265,0.076 -5.583242,-0.001 -7.038243,-0.23982 z m -1.004672,-28.72878 c -1.585947,-0.27505 -3.907666,-0.81703 -5.159375,-1.20441 -1.25171,-0.38738 -3.007938,-1.05108 -3.902729,-1.4749 -0.894792,-0.42381 -1.99612,-1.1911 -2.447396,-1.70507 -0.674134,-0.7678 -0.820502,-1.16131 -0.820502,-2.20591 0,-1.19554 -0.235267,-1.62673 -3.942539,-7.22585 -2.168396,-3.27495 -5.006733,-7.72906 -6.307416,-9.89803 -1.300683,-2.16898 -3.120226,-5.31281 -4.043431,-6.9863 -0.923204,-1.67349 -2.532425,-4.82864 -3.576045,-7.01146 -1.043621,-2.18281 -2.437903,-5.3975 -3.098404,-7.14374 -0.660502,-1.74625 -1.565488,-4.48469 -2.01108,-6.08542 -0.445592,-1.60073 -1.01516,-4.04151 -1.265706,-5.42396 -0.305375,-1.68498 -0.456983,-3.90901 -0.459922,-6.74687 -0.0031,-2.98251 0.13344,-4.93693 0.462071,-6.61459 0.256551,-1.30968 0.771407,-3.27422 1.144125,-4.36562 0.372717,-1.09141 1.010284,-2.64763 1.416813,-3.45826 0.40653,-0.81064 1.476743,-2.57661 2.378251,-3.92438 0.92124,-1.377266 2.813947,-3.628695 4.321627,-5.140695 1.475387,-1.479614 3.613331,-3.38825 4.750987,-4.241413 1.137656,-0.853163 3.16831,-2.242471 4.512563,-3.087351 1.344254,-0.84488 3.627234,-2.066914 5.073289,-2.715631 1.446056,-0.648717 3.977253,-1.614387 5.624882,-2.145934 1.64763,-0.531548 4.386067,-1.21862 6.085417,-1.526828 2.506024,-0.454514 4.189375,-0.563856 8.910555,-0.578784 5.3631,-0.01696 6.09565,0.0387 9.31553,0.707827 1.92208,0.399427 5.05003,1.258976 6.951,1.91011 1.90098,0.651133 4.78546,1.850467 6.40996,2.665186 1.6245,0.814719 4.09249,2.22685 5.48441,3.138069 1.39192,0.911218 3.39641,2.41723 4.45442,3.346693 1.05801,0.929462 2.64861,2.523369 3.53466,3.542015 0.88604,1.018646 2.18442,2.661798 2.88528,3.65145 0.70085,0.989656 1.80597,2.894656 2.4558,4.233336 0.64984,1.33868 1.43623,3.26191 1.74755,4.27384 0.31132,1.01193 0.74101,2.84323 0.95486,4.06955 0.21385,1.22633 0.38882,3.77638 0.38882,5.6668 0,1.89041 -0.18582,4.70255 -0.41294,6.24919 -0.22711,1.54665 -0.64903,3.76458 -0.9376,4.92875 -0.28856,1.16417 -1.01322,3.60495 -1.61034,5.42396 -0.59712,1.81901 -1.85481,5.09323 -2.79488,7.27604 -0.94006,2.18281 -1.79784,4.08781 -1.90617,4.23333 -0.10833,0.14552 -1.06528,1.92788 -2.12656,3.9608 -1.06127,2.03292 -3.3604,6.02151 -5.10916,8.86354 -1.74876,2.84203 -4.64859,7.3444 -6.44408,10.00527 -3.2414,4.80368 -3.26452,4.84876 -3.26452,6.36664 0,1.32277 -0.0981,1.62273 -0.72854,2.22669 -0.40069,0.38389 -1.50202,1.04786 -2.44739,1.47549 -0.94537,0.42763 -2.55229,1.02031 -3.57094,1.31707 -1.01865,0.29677 -3.04271,0.80404 -4.49792,1.12728 -2.15425,0.47852 -3.65358,0.60303 -8.06979,0.67014 -4.40237,0.0669 -5.967061,-0.0118 -8.307495,-0.41766 z m 13.821765,-12.97338 c 0.7419,-2.25558 2.0059,-6.44978 2.8089,-9.32046 0.80299,-2.87068 2.06259,-7.75224 2.7991,-10.84792 0.73652,-3.09567 1.79969,-8.24787 2.36261,-11.44933 0.56292,-3.20146 1.23877,-7.48771 1.50189,-9.525 0.34275,-2.65393 0.47844,-5.46707 0.47855,-9.92188 9e-5,-3.84592 -0.13122,-7.02512 -0.34424,-8.33437 -0.18941,-1.16417 -0.58585,-3.1287 -0.88098,-4.36562 -0.29513,-1.23693 -0.99956,-3.44385 -1.56541,-4.90426 -0.56586,-1.46041 -1.59532,-3.573072 -2.28769,-4.694802 -0.69238,-1.12173 -1.85003,-2.724816 -2.57257,-3.562413 -0.72253,-0.837597 -1.69203,-1.850905 -2.15445,-2.251796 l -0.84076,-0.728892 0.74851,1.839301 c 0.41168,1.011615 1.1104,3.27725 1.55272,5.034745 0.44232,1.757495 1.04778,4.882877 1.34548,6.945307 0.2977,2.06242 0.67157,5.24447 0.83083,7.07123 0.17752,2.03617 0.23275,6.44396 0.14272,11.39116 -0.10126,5.5644 -0.35846,10.32875 -0.82841,15.34583 -0.37485,4.00182 -1.09563,10.49073 -1.60174,14.41979 -0.50611,3.92906 -1.33549,10.20963 -1.84306,13.95681 -0.50758,3.74719 -1.00142,7.14047 -1.09742,7.54063 -0.096,0.40016 -0.11355,0.66803 -0.039,0.59527 0.0745,-0.0728 0.74254,-1.97776 1.48443,-4.23333 z m -11.975127,-2.94992 c -0.512016,-3.54353 -1.344687,-9.83607 -1.85038,-13.98342 -0.505692,-4.14734 -1.161028,-9.9814 -1.456302,-12.96458 -0.295273,-2.98318 -0.674877,-7.26943 -0.843564,-9.525 -0.168687,-2.25557 -0.308581,-7.01807 -0.310876,-10.58333 -0.0023,-3.56526 0.137805,-7.97057 0.311335,-9.78959 0.173529,-1.81901 0.550318,-4.93961 0.837309,-6.93466 0.286991,-1.99506 0.863336,-4.979706 1.280766,-6.632546 0.41743,-1.65284 1.128748,-3.885277 1.580706,-4.960969 l 0.821742,-1.955806 -1.596006,1.576889 c -0.877804,0.867289 -2.171442,2.410327 -2.874752,3.428973 -0.70331,1.018645 -1.777541,2.846733 -2.387181,4.062417 -0.609639,1.215684 -1.464748,3.299282 -1.900241,4.630212 -0.435494,1.33093 -1.03496,3.78909 -1.332148,5.46258 -0.337849,1.90246 -0.593136,4.78796 -0.68122,7.69984 -0.07902,2.61207 -0.0044,6.38809 0.169829,8.59896 0.17089,2.168 0.673157,6.26354 1.11615,9.1012 0.442992,2.83765 1.15694,6.82625 1.586549,8.86354 0.429609,2.03729 1.323944,5.96635 1.987411,8.73125 0.663467,2.76489 1.739502,6.93208 2.391189,9.26041 0.651687,2.32834 1.656669,5.78115 2.233295,7.67292 0.576625,1.89177 1.189672,3.83495 1.362325,4.31818 0.172654,0.48322 0.352411,0.76311 0.39946,0.62196 0.04705,-0.14115 -0.333379,-3.15589 -0.845396,-6.69943 z m 6.978567,-4.91164 c 0.16578,-2.15182 0.53104,-6.17459 0.81168,-8.93949 0.28065,-2.76489 0.63074,-6.51536 0.77799,-8.33437 0.14725,-1.81901 0.4412,-6.28385 0.65323,-9.92187 0.21202,-3.63803 0.46242,-8.69818 0.55643,-11.2448 0.094,-2.54661 0.0377,-7.24958 -0.12518,-10.45104 -0.16286,-3.20146 -0.53849,-7.78536 -0.83472,-10.18645 -0.29623,-2.401098 -0.7821,-5.556255 -1.07971,-7.011463 -0.29761,-1.455208 -0.8332,-3.655305 -1.19021,-4.889104 -0.35701,-1.2338 -0.69393,-2.288092 -0.74871,-2.342873 -0.0548,-0.05478 -0.45756,1.073754 -0.89507,2.507855 -0.4375,1.434101 -0.97283,3.619487 -1.18962,4.856414 -0.2168,1.236927 -0.53029,3.141927 -0.69666,4.233333 -0.16637,1.091408 -0.47164,3.651248 -0.67836,5.688538 -0.20673,2.03729 -0.45012,6.74026 -0.54087,10.45104 -0.0962,3.9355 -0.0398,9.17239 0.13546,12.56771 0.16525,3.20146 0.6006,9.7499 0.96743,14.55208 0.36684,4.80219 0.95252,11.64829 1.3015,15.21355 0.34898,3.56526 0.76569,7.97057 0.92602,9.78958 0.16033,1.81901 0.36575,3.72401 0.4565,4.23333 0.12232,0.68657 0.28478,-0.0806 0.62822,-2.96676 0.25478,-2.14105 0.59887,-5.65339 0.76465,-7.80521 z m -12.911604,6.36555 c -0.288832,-0.99621 -0.846767,-3.12097 -1.239854,-4.7217 -0.393088,-1.60073 -1.064371,-4.04151 -1.49174,-5.42396 -0.42737,-1.38245 -1.59919,-5.60917 -2.604046,-9.39271 -1.004855,-3.78354 -2.120447,-8.24838 -2.479092,-9.92187 -0.358645,-1.67349 -0.95467,-4.88818 -1.324499,-7.14375 -0.36983,-2.25558 -0.812275,-5.70839 -0.983213,-7.67292 -0.185625,-2.13333 -0.248293,-5.48994 -0.155604,-8.33437 0.08536,-2.61938 0.336757,-5.83407 0.558671,-7.14375 0.221913,-1.30969 0.653645,-3.33375 0.959402,-4.49792 0.305758,-1.16417 1.02179,-3.354447 1.591182,-4.86729 0.569392,-1.512844 1.590557,-3.655969 2.269256,-4.7625 0.678699,-1.106532 1.602918,-2.415198 2.05382,-2.908146 0.450902,-0.492949 0.620206,-0.790605 0.376232,-0.661459 -0.243975,0.129147 -1.516061,1.218459 -2.826857,2.420694 -1.310797,1.202234 -3.079191,3.109443 -3.929766,4.238241 -0.850575,1.128799 -2.098245,3.121714 -2.772599,4.4287 -0.674354,1.30699 -1.479183,3.03119 -1.788508,3.83155 -0.309325,0.80037 -0.863506,2.64583 -1.231512,4.10104 -0.542114,2.14368 -0.695768,3.5246 -0.809601,7.27604 -0.115646,3.81121 -0.04616,5.26201 0.39286,8.20209 0.293346,1.96453 1.072853,5.77453 1.732238,8.46666 0.659385,2.69214 1.754107,6.6212 2.432717,8.73125 0.678609,2.11006 2.401787,6.75349 3.829283,10.31875 1.427496,3.56526 3.38945,8.26823 4.359898,10.45104 0.970448,2.18282 2.128658,4.65549 2.573801,5.49483 0.445143,0.83934 0.8596,1.47582 0.921016,1.4144 0.06142,-0.0614 -0.124652,-0.92674 -0.413485,-1.92294 z m 24.661624,-1.08368 c 0.78332,-1.56435 2.04579,-4.27302 2.80548,-6.01927 0.75969,-1.74625 2.1603,-5.19907 3.11245,-7.67292 0.95216,-2.47385 2.59987,-7.11729 3.66158,-10.31875 1.06171,-3.20146 2.35908,-7.52782 2.88304,-9.61415 0.52397,-2.08633 1.18599,-5.30101 1.47117,-7.14375 0.28517,-1.84274 0.59269,-4.66012 0.68337,-6.26085 0.092,-1.62468 0.0314,-4.22181 -0.13736,-5.87892 -0.16624,-1.63268 -0.59742,-4.13299 -0.95818,-5.55625 -0.38288,-1.5105 -1.25217,-3.80501 -2.08821,-5.51186 -0.78775,-1.60826 -2.13864,-3.870449 -3.00197,-5.027082 -0.86334,-1.156632 -2.39124,-2.899581 -3.39534,-3.87322 -1.0041,-0.973638 -2.17848,-2.044076 -2.60974,-2.378751 l -0.78411,-0.6085 0.8727,1.268426 c 0.47999,0.697634 1.50685,2.60151 2.28192,4.230835 0.77507,1.629325 1.72324,3.914909 2.10706,5.079072 0.38382,1.16417 1.01482,3.84308 1.40224,5.95313 0.63632,3.46564 0.70363,4.43743 0.69648,10.05416 -0.007,5.62061 -0.0894,6.76194 -0.85699,11.88477 -0.467,3.11688 -1.07775,6.68875 -1.35723,7.9375 -0.27948,1.24874 -0.87021,3.85097 -1.31274,5.78273 -0.44253,1.93175 -1.29386,5.32503 -1.89183,7.54062 -0.59798,2.21559 -1.60114,5.75475 -2.22923,7.8648 -0.6281,2.11005 -1.52352,5.26521 -1.98983,7.01146 -0.46631,1.74625 -0.90701,3.38336 -0.97934,3.63802 -0.0723,0.25466 -0.0591,0.46302 0.0294,0.46302 0.0885,0 0.80184,-1.27992 1.58517,-2.84427 z m -31.202932,-0.52917 c -0.231811,-0.5457 -1.120744,-2.71859 -1.975409,-4.82864 -0.854664,-2.11006 -2.278554,-5.56287 -3.1642,-7.67292 -0.885646,-2.11005 -2.510575,-6.09582 -3.610953,-8.85726 -1.100378,-2.76143 -2.458494,-6.45237 -3.018035,-8.20208 -0.559541,-1.74971 -1.370175,-4.61003 -1.801408,-6.35628 -0.431232,-1.74625 -0.942108,-4.06797 -1.135279,-5.15938 -0.213827,-1.20811 -0.349002,-4.00265 -0.345552,-7.14375 0.0042,-3.78788 0.132131,-5.8627 0.481408,-7.80521 0.261658,-1.45521 0.818875,-3.68202 1.23826,-4.94847 0.419386,-1.26646 1.256462,-3.29052 1.86017,-4.49792 0.603708,-1.2074 1.500627,-2.76082 1.993153,-3.452044 0.492527,-0.691224 0.80528,-1.25677 0.695007,-1.25677 -0.110273,0 -1.456558,1.279921 -2.991744,2.84427 -1.535186,1.564349 -3.345813,3.627754 -4.023614,4.585354 -0.677802,0.9576 -1.608838,2.49987 -2.06897,3.42727 -0.460132,0.9274 -1.108867,2.48667 -1.441632,3.46504 -0.332765,0.97837 -0.750949,2.68341 -0.929296,3.78898 -0.213869,1.32577 -0.271651,3.42673 -0.169718,6.17096 0.09976,2.68569 0.353297,5.09436 0.715141,6.79398 0.308324,1.44824 1.0385,4.06761 1.622612,5.82084 0.584112,1.75322 1.603709,4.43783 2.265771,5.9658 0.662062,1.52797 1.858617,4.08782 2.659012,5.68854 0.800395,1.60073 2.230909,4.27964 3.178919,5.95313 0.948011,1.67349 2.852458,4.88818 4.232105,7.14375 1.379646,2.25557 3.278092,5.32143 4.218768,6.81302 0.940676,1.49159 1.761314,2.71198 1.823639,2.71198 0.06233,0 -0.07635,-0.44649 -0.308155,-0.99219 z m 39.970532,-4.96094 c 1.4389,-2.18281 3.66917,-5.75468 4.95614,-7.9375 1.28697,-2.18281 3.27499,-5.87375 4.41782,-8.20208 1.14282,-2.32833 2.74059,-5.90021 3.55059,-7.9375 0.81,-2.03729 1.88262,-5.13291 2.38361,-6.87916 0.50099,-1.74625 1.11616,-4.48469 1.36703,-6.08542 0.34497,-2.20115 0.42189,-3.84536 0.31562,-6.74688 -0.0959,-2.61749 -0.31048,-4.47744 -0.67548,-5.85383 -0.29424,-1.10956 -1.09316,-3.13362 -1.77538,-4.49792 -0.68222,-1.36429 -1.75113,-3.20035 -2.37535,-4.08013 -0.62421,-0.87977 -2.22179,-2.633863 -3.55016,-3.897982 -1.32837,-1.26412 -2.67917,-2.43874 -3.00177,-2.610267 -0.41668,-0.22155 -0.30113,0.0051 0.399,0.782536 0.54204,0.601923 1.41213,1.941511 1.93353,2.976862 0.52139,1.035351 1.35081,3.092151 1.84315,4.570661 0.49235,1.47851 1.10448,3.81929 1.36031,5.20174 0.32777,1.77118 0.46714,3.88106 0.4719,7.14375 0.004,2.54662 -0.14097,5.65306 -0.32153,6.90322 -0.18055,1.25015 -0.68665,3.7406 -1.12467,5.53433 -0.43801,1.79374 -1.19665,4.58088 -1.68587,6.19366 -0.48921,1.61278 -1.33416,4.12296 -1.87765,5.57816 -0.5435,1.45521 -2.29573,5.86053 -3.89385,9.78959 -1.59812,3.92906 -3.61818,8.81062 -4.48902,10.84791 -0.87085,2.0373 -1.75134,3.96787 -1.95666,4.29017 -0.20532,0.32231 -0.37331,0.66759 -0.37331,0.76731 0,0.0997 0.33431,-0.28305 0.74291,-0.85059 0.40859,-0.56754 1.92018,-2.81782 3.35909,-5.00064 z"
       id="path1" /></g></svg>
